<?xml version="1.0" encoding="UTF-8" standalone="no"?>
<svg
   xmlns:dc="http://purl.org/dc/elements/1.1/"
   xmlns:cc="http://creativecommons.org/ns#"
   xmlns:rdf="http://www.w3.org/1999/02/22-rdf-syntax-ns#"
   xmlns:svg="http://www.w3.org/2000/svg"
   xmlns="http://www.w3.org/2000/svg"
   xmlns:sodipodi="http://sodipodi.sourceforge.net/DTD/sodipodi-0.dtd"
   xmlns:inkscape="http://www.inkscape.org/namespaces/inkscape"
   inkscape:version="1.0 (6e3e5246a0, 2020-05-07)"
   sodipodi:docname="logo.svg"
   id="svg42"
   version="1.1"
   fill="none"
   viewBox="0 0 48 44"
   height="44"
   width="48">
  <metadata
     id="metadata48">
    <rdf:RDF>
      <cc:Work
         rdf:about="">
        <dc:format>image/svg+xml</dc:format>
        <dc:type
           rdf:resource="http://purl.org/dc/dcmitype/StillImage" />
        <dc:title></dc:title>
      </cc:Work>
    </rdf:RDF>
  </metadata>
  <defs
     id="defs46" />
  <sodipodi:namedview
     inkscape:current-layer="svg42"
     inkscape:window-maximized="1"
     inkscape:window-y="0"
     inkscape:window-x="0"
     inkscape:cy="22"
     inkscape:cx="91"
     inkscape:zoom="6.7802198"
     showgrid="false"
     id="namedview44"
     inkscape:window-height="1043"
     inkscape:window-width="1920"
     inkscape:pageshadow="2"
     inkscape:pageopacity="0"
     guidetolerance="10"
     gridtolerance="10"
     objecttolerance="10"
     borderopacity="1"
     bordercolor="#666666"
     pagecolor="#ffffff" />
  <path
     id="path16"
     fill="#29a361"
     d="m 14.642,1.84962 -4.5749,8.73648 c -0.29542,0.564 -0.10089,1.2693 0.4375,1.5864 l 7.1635,4.2197 c 0.5459,0.3215 1.2398,0.1238 1.5502,-0.4418 L 27.9745,6.44684e-4 H 17.6401 c -1.2509,0 -2.4015,0.709528316 -2.9981,1.848975316 z" />
  <path
     id="path18"
     fill="#248f55"
     d="m 27.974,0 -8.7558,15.95 c -0.311,0.5654 -1.0045,0.7636 -1.5501,0.4423 l -1.8698,-1.101 c 0.4559,0.0761 0.9301,-0.141 1.1715,-0.5814 L 25.0468,0 Z" />
  <path
     id="path20"
     fill="#34cb79"
     d="M 37.5549,8.45922 34.3995,1.94901 C 33.8206,0.754574 32.641,6.44684e-4 31.3513,6.44684e-4 H 22.228 L 29.2328,12.3166 c -0.0229,0.0107 -0.046,0.0214 -0.069,0.0321 -0.4406,0.2055 -0.4226,0.8606 0.0285,1.0401 l 6.0487,2.4072 c 0.2803,0.1116 0.5948,-0.0335 0.7024,-0.3239 L 38.2751,9.17953 C 38.4475,8.71406 37.9948,8.26491 37.5549,8.45922 Z" />
  <path
     id="path22"
     fill="#2fb86e"
     d="m 38.2751,9.17899 -2.3324,6.29251 c -0.1071,0.2912 -0.4221,0.4364 -0.7021,0.3243 L 33.4104,15.0671 35.5922,9.17899 C 35.7162,8.84506 35.5181,8.51988 35.2339,8.43458 34.9632,8.35326 34.7321,8.16954 34.6056,7.90858 L 31.7165,1.94875 C 31.1379,0.754706 29.9587,0 28.6685,0 h 2.6829 c 1.2893,0 2.4685,0.754706 3.048,1.94875 l 3.1552,6.5107 c 0.4405,-0.19421 0.8925,0.25416 0.7205,0.71954 z" />
  <path
     id="path24"
     fill="#29a361"
     d="m 31.4594,33.5593 c -0.085,-0.3615 -0.535,-0.5163 -0.8096,-0.2318 l -4.7276,4.8993 c -0.1886,0.1955 -0.1886,0.5123 0,0.7077 l 4.7458,4.9181 c 0.2728,0.2827 0.7182,0.1318 0.8078,-0.2235 h 6.979 c 1.2849,0 2.4608,-0.7482 3.0421,-1.9357 l 3.9822,-8.1342 H 31.4594 Z" />
  <path
     id="path26"
     fill="#248f55"
     d="m 37.3508,33.5594 2.2629,3.5485 c 0.5116,0.8022 0.5682,1.8274 0.1483,2.6849 l -0.9307,1.9007 c -0.5804,1.1871 -1.7568,1.9358 -3.0413,1.9358 h 2.6647 c 1.2845,0 2.4608,-0.7487 3.0423,-1.9358 l 3.9819,-8.134 h -8.1281 z" />
  <path
     id="path28"
     fill="#29a361"
     d="m 21.9354,42.6939 v -8.6583 c 0,-0.6507 -0.5091,-1.1784 -1.1371,-1.1784 H 2.06787 l 4.82025,9.1709 c 0.59747,1.1368 1.74657,1.8442 2.9956,1.8442 H 20.7983 c 0.6279,0 1.1371,-0.5275 1.1371,-1.1784 z" />
  <path
     id="path30"
     fill="#248f55"
     d="M 10.0115,32.858 5.85181,40.0573 2.06787,32.858 Z" />
  <path
     id="path32"
     fill="#248f55"
     d="m 21.935,34.0358 v 8.6586 c 0,0.6506 -0.509,1.178 -1.1367,1.178 h -2.9834 c 0.6278,0 1.1368,-0.5274 1.1368,-1.178 v -8.6586 c 0,-0.6506 -0.509,-1.178 -1.1368,-1.178 h 2.9834 c 0.6277,-10e-5 1.1367,0.5274 1.1367,1.178 z" />
  <path
     id="path34"
     fill="#34cb79"
     d="M 12.7847,25.2066 11.9436,18.6467 C 11.902,18.3226 11.6148,18.0949 11.3021,18.1379 l -6.35426,0.875 C 4.46934,19.0788 4.29102,19.682 4.61877,20.0176 L 0.608522,26.0077 C -0.126759,27.106 -0.201384,28.54 0.415585,29.7138 l 4.363965,8.3029 7.08585,-12.266 c 0.0025,0.0019 0.0049,0.0039 0.0075,0.0059 0.4044,0.3181 0.9786,-0.0284 0.9118,-0.55 z" />
  <path
     id="path36"
     fill="#2fb86e"
     d="m 11.8725,25.7566 c -0.002,-0.0021 -0.0048,-0.004 -0.0068,-0.006 L 4.77961,38.0163 3.32227,35.2438 9.08977,25.2586 9.2497,24.9816 c 0.08747,-0.1514 0.25838,-0.2168 0.42553,-0.1832 8.5e-4,2e-4 0.00169,3e-4 0.00254,5e-4 0.35563,0.0657 0.72033,-0.2413 0.66573,-0.6627 L 9.60464,18.3712 11.3015,18.138 c 0.313,-0.043 0.6008,0.1852 0.6423,0.5084 l 0.8412,6.5608 c 0.0668,0.5213 -0.5079,0.8676 -0.9125,0.5494 z" />
  <path
     id="path38"
     fill="#34cb79"
     d="m 47.3959,25.5569 -5.4856,-8.2372 c -0.3364,-0.5053 -0.991,-0.6582 -1.5041,-0.3513 l -7.1488,4.2751 c -0.5674,0.3393 -0.7415,1.104 -0.3803,1.6704 l 10.0778,15.8012 4.6757,-9.5508 c 0.5659,-1.156 0.4759,-2.5404 -0.2347,-3.6074 z" />
  <path
     id="path40"
     fill="#2fb86e"
     d="m 47.6305,29.1645 -4.6764,9.5503 -1.5684,-2.4602 3.4711,-7.0902 c 0.5659,-1.156 0.4761,-2.5402 -0.2347,-3.6072 l -5.2915,-7.9449 1.0758,-0.6436 c 0.5129,-0.3073 1.1677,-0.1542 1.5038,0.3513 l 5.4857,8.2373 c 0.7107,1.067 0.8005,2.4512 0.2346,3.6072 z" />
</svg>
